<svg width="180" height="52" viewBox="0 0 180 52" fill="none" xmlns="http://www.w3.org/2000/svg">
<path d="M179 46.0029C179 48.774 176.709 51.0187 173.874 51.0187H6.13243C3.2995 51.0187 1 48.774 1 46.0029V6.00333C1 3.23349 3.2995 0.980957 6.13243 0.980957H173.873C176.709 0.980957 178.999 3.23349 178.999 6.00333L179 46.0029Z" fill="black"/>
<path d="M173.333 1.04162C176.42 1.04162 178.932 3.4905 178.932 6.5V45.5C178.932 48.5095 176.42 50.9584 173.333 50.9584H6.66667C3.58 50.9584 1.06833 48.5095 1.06833 45.5V6.5C1.06833 3.4905 3.58 1.04162 6.66667 1.04162H173.333ZM173.333 2.74817e-06H6.66667C3.00167 2.74817e-06 0 2.92663 0 6.5V45.5C0 49.0734 3.00167 52 6.66667 52H173.333C176.998 52 180 49.0734 180 45.5V6.5C180 2.92663 176.998 2.74817e-06 173.333 2.74817e-06Z" fill="#A6A6A6"/>
<path d="M36.1235 26.5499C36.0916 23.0934 39.0263 21.4118 39.1605 21.3335C37.4985 18.9709 34.9224 18.6481 34.0171 18.6224C31.8535 18.4004 29.7548 19.8847 28.6527 19.8847C27.5285 19.8847 25.8313 18.6438 24.0021 18.6803C21.6482 18.7157 19.4461 20.0444 18.2383 22.1078C15.7459 26.3151 17.6048 32.4977 19.9928 35.8985C21.1873 37.564 22.5831 39.4236 24.4102 39.3582C26.1976 39.2864 26.8652 38.2472 29.0222 38.2472C31.1594 38.2472 31.7864 39.3582 33.6497 39.3164C35.568 39.2864 36.7758 37.6434 37.9285 35.9628C39.309 34.0539 39.8633 32.1739 39.8853 32.0773C39.8402 32.0623 36.1598 30.6928 36.1235 26.5499Z" fill="white"/>
<path d="M32.6037 16.3852C33.565 15.2131 34.2228 13.6183 34.0402 12C32.6488 12.0601 30.9087 12.9384 29.9066 14.0848C29.02 15.0951 28.2281 16.751 28.4327 18.3082C29.9957 18.4218 31.6005 17.5392 32.6037 16.3852Z" fill="white"/>
<path d="M64.5258 12.4644C64.5258 13.8079 64.1126 14.8192 63.2872 15.4984C62.5227 16.125 61.4363 16.4389 60.0291 16.4389C59.3313 16.4389 58.7343 16.4093 58.2344 16.3499V9.00924C58.8865 8.90651 59.5889 8.854 60.3475 8.854C61.688 8.854 62.6983 9.13822 63.3797 9.70667C64.143 10.3493 64.5258 11.2682 64.5258 12.4644ZM63.2322 12.4975C63.2322 11.6266 62.9957 10.9588 62.5227 10.4931C62.0498 10.0286 61.359 9.7957 60.4494 9.7957C60.063 9.7957 59.7341 9.82081 59.4613 9.87332V15.4539C59.6123 15.4767 59.8886 15.487 60.2902 15.487C61.2291 15.487 61.9538 15.2324 62.4642 14.7233C62.9746 14.2143 63.2322 13.4723 63.2322 12.4975Z" fill="white"/>
<path d="M71.3857 13.6378C71.3857 14.4653 71.1433 15.1434 70.6587 15.6753C70.1506 16.222 69.4774 16.4948 68.6368 16.4948C67.8267 16.4948 67.1816 16.2334 66.7005 15.7084C66.2205 15.1844 65.9805 14.5235 65.9805 13.7268C65.9805 12.8936 66.2275 12.2098 66.7239 11.6791C67.2203 11.1483 67.8876 10.8823 68.7281 10.8823C69.5383 10.8823 70.1892 11.1437 70.6821 11.6676C71.1504 12.1767 71.3857 12.8342 71.3857 13.6378ZM70.1131 13.6766C70.1131 13.1801 70.0031 12.7543 69.7841 12.3993C69.5266 11.9701 69.1601 11.7555 68.6837 11.7555C68.1908 11.7555 67.8162 11.9701 67.5586 12.3993C67.3385 12.7543 67.2296 13.1869 67.2296 13.6983C67.2296 14.1948 67.3397 14.6206 67.5586 14.9756C67.8244 15.4047 68.1943 15.6193 68.672 15.6193C69.1402 15.6193 69.5078 15.4013 69.7724 14.9641C69.9995 14.6023 70.1131 14.1731 70.1131 13.6766Z" fill="white"/>
<path d="M80.578 10.9917L78.8512 16.3725H77.7273L77.012 14.0359C76.8306 13.4527 76.6831 12.8728 76.5683 12.2975H76.5461C76.4395 12.8888 76.292 13.4675 76.1024 14.0359L75.3426 16.3725H74.2058L72.582 10.9917H73.8429L74.4669 13.5497C74.6179 14.1547 74.742 14.7311 74.8415 15.2767H74.8638C74.9551 14.827 75.1061 14.254 75.3192 13.5611L76.1024 10.9928H77.1022L77.8526 13.5063C78.0341 14.1193 78.1816 14.7094 78.2951 15.2778H78.3291C78.4122 14.7242 78.5375 14.1341 78.7037 13.5063L79.3734 10.9928H80.578V10.9917Z" fill="white"/>
<path d="M86.9429 16.3727H85.716V13.2908C85.716 12.3411 85.346 11.8663 84.6038 11.8663C84.2397 11.8663 83.9458 11.9964 83.7175 12.2578C83.4916 12.5192 83.3769 12.8274 83.3769 13.1801V16.3716H82.1499V12.5294C82.1499 12.0569 82.1347 11.5444 82.1055 10.9896H83.1837L83.2411 11.8309H83.275C83.4178 11.5695 83.6309 11.3538 83.9107 11.1814C84.2432 10.9805 84.6155 10.8789 85.0229 10.8789C85.538 10.8789 85.9665 11.041 86.3072 11.3663C86.731 11.7647 86.9429 12.3594 86.9429 13.1493V16.3727Z" fill="white"/>
<path d="M90.3234 16.3727H89.0977V8.52295H90.3234V16.3727Z" fill="white"/>
<path d="M97.5497 13.6378C97.5497 14.4653 97.3074 15.1434 96.8227 15.6753C96.3146 16.222 95.6403 16.4948 94.8009 16.4948C93.9896 16.4948 93.3445 16.2334 92.8645 15.7084C92.3845 15.1844 92.1445 14.5235 92.1445 13.7268C92.1445 12.8936 92.3916 12.2098 92.8879 11.6791C93.3843 11.1483 94.0516 10.8823 94.891 10.8823C95.7023 10.8823 96.3521 11.1437 96.8461 11.6676C97.3144 12.1767 97.5497 12.8342 97.5497 13.6378ZM96.276 13.6766C96.276 13.1801 96.1659 12.7543 95.947 12.3993C95.6906 11.9701 95.323 11.7555 94.8477 11.7555C94.3537 11.7555 93.979 11.9701 93.7227 12.3993C93.5026 12.7543 93.3937 13.1869 93.3937 13.6983C93.3937 14.1948 93.5037 14.6206 93.7227 14.9756C93.9884 15.4047 94.3584 15.6193 94.836 15.6193C95.3043 15.6193 95.6707 15.4013 95.9353 14.9641C96.1636 14.6023 96.276 14.1731 96.276 13.6766Z" fill="white"/>
<path d="M103.488 16.3727H102.386L102.295 15.7529H102.261C101.884 16.2471 101.346 16.4948 100.649 16.4948C100.128 16.4948 99.7063 16.3316 99.389 16.0074C99.101 15.7129 98.957 15.3465 98.957 14.9116C98.957 14.2542 99.238 13.7531 99.8035 13.4061C100.368 13.0591 101.161 12.889 102.184 12.897V12.7965C102.184 12.0877 101.802 11.7338 101.037 11.7338C100.493 11.7338 100.013 11.8674 99.5986 12.1322L99.3492 11.3469C99.862 11.0376 100.495 10.8823 101.242 10.8823C102.685 10.8823 103.408 11.6243 103.408 13.1082V15.0897C103.408 15.6273 103.435 16.0554 103.488 16.3727ZM102.214 14.5235V13.6937C100.861 13.6709 100.184 14.0327 100.184 14.7781C100.184 15.0589 100.261 15.2689 100.419 15.4093C100.577 15.5497 100.779 15.6193 101.019 15.6193C101.288 15.6193 101.54 15.536 101.769 15.3705C102 15.2039 102.141 14.9927 102.194 14.7336C102.207 14.6754 102.214 14.6046 102.214 14.5235Z" fill="white"/>
<path d="M110.46 16.3727H109.371L109.313 15.5086H109.28C108.932 16.1661 108.339 16.4948 107.507 16.4948C106.842 16.4948 106.288 16.2403 105.849 15.7312C105.41 15.2221 105.191 14.5612 105.191 13.7497C105.191 12.8787 105.429 12.1733 105.907 11.6345C106.369 11.1323 106.936 10.8812 107.61 10.8812C108.351 10.8812 108.87 11.1243 109.165 11.6117H109.188V8.52295H110.416V14.9231C110.416 15.447 110.43 15.9298 110.46 16.3727ZM109.188 14.1035V13.2063C109.188 13.0511 109.177 12.9255 109.154 12.8296C109.085 12.542 108.937 12.3 108.711 12.1048C108.482 11.9096 108.207 11.8115 107.89 11.8115C107.432 11.8115 107.074 11.9884 106.811 12.3434C106.549 12.6984 106.417 13.1515 106.417 13.7051C106.417 14.237 106.542 14.6685 106.794 15.0007C107.06 15.3545 107.418 15.5315 107.866 15.5315C108.269 15.5315 108.591 15.3842 108.836 15.0886C109.072 14.8158 109.188 14.487 109.188 14.1035Z" fill="white"/>
<path d="M120.952 13.6378C120.952 14.4653 120.71 15.1434 120.225 15.6753C119.717 16.222 119.045 16.4948 118.203 16.4948C117.394 16.4948 116.749 16.2334 116.267 15.7084C115.787 15.1844 115.547 14.5235 115.547 13.7268C115.547 12.8936 115.794 12.2098 116.29 11.6791C116.787 11.1483 117.454 10.8823 118.296 10.8823C119.105 10.8823 119.757 11.1437 120.248 11.6676C120.717 12.1767 120.952 12.8342 120.952 13.6378ZM119.681 13.6766C119.681 13.1801 119.571 12.7543 119.352 12.3993C119.093 11.9701 118.728 11.7555 118.25 11.7555C117.758 11.7555 117.384 11.9701 117.125 12.3993C116.905 12.7543 116.796 13.1869 116.796 13.6983C116.796 14.1948 116.906 14.6206 117.125 14.9756C117.391 15.4047 117.761 15.6193 118.238 15.6193C118.707 15.6193 119.075 15.4013 119.34 14.9641C119.566 14.6023 119.681 14.1731 119.681 13.6766Z" fill="white"/>
<path d="M127.547 16.3727H126.321V13.2908C126.321 12.3411 125.951 11.8663 125.208 11.8663C124.844 11.8663 124.55 11.9964 124.323 12.2578C124.096 12.5192 123.982 12.8274 123.982 13.1801V16.3716H122.754V12.5294C122.754 12.0569 122.74 11.5444 122.711 10.9896H123.788L123.845 11.8309H123.879C124.023 11.5695 124.236 11.3538 124.515 11.1814C124.849 10.9805 125.22 10.8789 125.628 10.8789C126.142 10.8789 126.571 11.041 126.911 11.3663C127.336 11.7647 127.547 12.3594 127.547 13.1493V16.3727Z" fill="white"/>
<path d="M135.806 11.888H134.455V14.5019C134.455 15.1662 134.695 15.4984 135.171 15.4984C135.391 15.4984 135.573 15.4801 135.717 15.4424L135.749 16.3499C135.507 16.4389 135.188 16.4834 134.796 16.4834C134.311 16.4834 133.934 16.3396 133.662 16.052C133.388 15.7643 133.252 15.2803 133.252 14.6012V11.888H132.445V10.9919H133.252V10.0057L134.454 9.65186V10.9908H135.805V11.888H135.806Z" fill="white"/>
<path d="M142.301 16.3727H141.073V13.3136C141.073 12.3491 140.703 11.8663 139.962 11.8663C139.393 11.8663 139.004 12.1459 138.791 12.7052C138.755 12.8228 138.734 12.9666 138.734 13.1356V16.3716H137.508V8.52295H138.734V11.7658H138.757C139.143 11.1757 139.697 10.8812 140.415 10.8812C140.923 10.8812 141.343 11.0433 141.677 11.3686C142.092 11.7738 142.301 12.3765 142.301 13.1732V16.3727Z" fill="white"/>
<path d="M149 13.4278C149 13.6424 148.984 13.8227 148.955 13.97H145.275C145.291 14.5019 145.467 14.9071 145.808 15.1879C146.119 15.439 146.521 15.5646 147.012 15.5646C147.557 15.5646 148.053 15.4801 148.5 15.31L148.692 16.141C148.169 16.3624 147.553 16.4732 146.84 16.4732C145.986 16.4732 145.312 16.2278 144.825 15.7369C144.336 15.2461 144.094 14.5875 144.094 13.7611C144.094 12.9495 144.32 12.2738 144.775 11.735C145.25 11.1597 145.893 10.8721 146.704 10.8721C147.498 10.8721 148.101 11.1597 148.509 11.735C148.838 12.1916 149 12.7566 149 13.4278ZM147.83 13.1184C147.839 12.7635 147.758 12.4575 147.592 12.1996C147.379 11.8674 147.054 11.7008 146.615 11.7008C146.215 11.7008 145.888 11.8628 145.639 12.1882C145.435 12.4473 145.315 12.7566 145.275 13.1184H147.83Z" fill="white"/>
<path d="M69.5721 38.7577H66.9392L65.497 34.3391H60.484L59.1102 38.7577H56.5469L61.5135 23.7148H64.5811L69.5721 38.7577ZM65.0623 32.4853L63.758 28.5573C63.62 28.156 63.3615 27.2111 62.9801 25.7235H62.9337C62.7818 26.3633 62.5372 27.3083 62.201 28.5573L60.9199 32.4853H65.0623Z" fill="white"/>
<path d="M82.3424 33.2012C82.3424 35.046 81.8311 36.5042 80.8086 37.5746C79.8927 38.5275 78.7554 39.0034 77.3978 39.0034C75.9324 39.0034 74.8797 38.4902 74.2386 37.4638H74.1922V43.1778H71.7205V31.482C71.7205 30.3222 71.6892 29.1319 71.6289 27.9112H73.8027L73.9406 29.6304H73.987C74.8113 28.335 76.0622 27.6885 77.741 27.6885C79.0534 27.6885 80.1489 28.1937 81.0254 29.2054C81.9042 30.2182 82.3424 31.5498 82.3424 33.2012ZM79.8243 33.2894C79.8243 32.2337 79.5809 31.3633 79.0916 30.6783C78.5572 29.9639 77.8395 29.6067 76.9399 29.6067C76.33 29.6067 75.7759 29.8056 75.2808 30.1979C74.7846 30.5935 74.46 31.1101 74.3081 31.7499C74.2316 32.0483 74.1934 32.2924 74.1934 32.4846V34.2932C74.1934 35.0822 74.4415 35.748 74.9377 36.2917C75.4339 36.8354 76.0785 37.1066 76.8715 37.1066C77.8024 37.1066 78.527 36.7562 79.0452 36.0577C79.5646 35.358 79.8243 34.4356 79.8243 33.2894Z" fill="white"/>
<path d="M95.142 33.2012C95.142 35.046 94.6308 36.5042 93.6071 37.5746C92.6923 38.5275 91.555 39.0034 90.1974 39.0034C88.732 39.0034 87.6793 38.4902 87.0394 37.4638H86.993V43.1778H84.5213V31.482C84.5213 30.3222 84.49 29.1319 84.4297 27.9112H86.6035L86.7414 29.6304H86.7878C87.6109 28.335 88.8619 27.6885 90.5418 27.6885C91.853 27.6885 92.9486 28.1937 93.8273 29.2054C94.7026 30.2182 95.142 31.5498 95.142 33.2012ZM92.6239 33.2894C92.6239 32.2337 92.3793 31.3633 91.8901 30.6783C91.3556 29.9639 90.6403 29.6067 89.7395 29.6067C89.1285 29.6067 88.5755 29.8056 88.0793 30.1979C87.5831 30.5935 87.2596 31.1101 87.1078 31.7499C87.0324 32.0483 86.993 32.2924 86.993 32.4846V34.2932C86.993 35.0822 87.2411 35.748 87.735 36.2917C88.2312 36.8342 88.8758 37.1066 89.6711 37.1066C90.602 37.1066 91.3266 36.7562 91.8449 36.0577C92.3643 35.358 92.6239 34.4356 92.6239 33.2894Z" fill="white"/>
<path d="M109.447 34.5394C109.447 35.819 108.991 36.86 108.076 37.6637C107.071 38.542 105.672 38.9806 103.874 38.9806C102.213 38.9806 100.882 38.6686 99.875 38.0435L100.448 36.0349C101.533 36.6746 102.724 36.9957 104.021 36.9957C104.952 36.9957 105.676 36.7899 106.197 36.3808C106.715 35.9716 106.974 35.4222 106.974 34.7372C106.974 34.1268 106.76 33.6125 106.333 33.1954C105.907 32.7783 105.196 32.3906 104.204 32.0323C101.503 31.05 100.153 29.611 100.153 27.7188C100.153 26.4822 100.626 25.4682 101.573 24.6792C102.517 23.8891 103.776 23.4946 105.351 23.4946C106.755 23.4946 107.921 23.7331 108.852 24.209L108.234 26.1736C107.364 25.7124 106.381 25.4818 105.281 25.4818C104.412 25.4818 103.732 25.6909 103.245 26.1069C102.834 26.4788 102.627 26.9321 102.627 27.469C102.627 28.0636 102.863 28.5553 103.336 28.9418C103.747 29.299 104.495 29.6856 105.58 30.1027C106.908 30.6238 107.883 31.2331 108.51 31.9316C109.135 32.628 109.447 33.4995 109.447 34.5394Z" fill="white"/>
<path d="M117.619 29.7193H114.894V34.9856C114.894 36.3251 115.374 36.9943 116.337 36.9943C116.778 36.9943 117.145 36.957 117.435 36.8824L117.503 38.7124C117.016 38.8899 116.375 38.9792 115.581 38.9792C114.605 38.9792 113.842 38.6887 113.291 38.1088C112.743 37.5278 112.467 36.5534 112.467 35.1846V29.717H110.844V27.9084H112.467V25.9224L114.894 25.208V27.9084H117.619V29.7193Z" fill="white"/>
<path d="M129.912 33.2452C129.912 34.9125 129.423 36.2813 128.447 37.3518C127.423 38.4539 126.064 39.0032 124.371 39.0032C122.738 39.0032 121.439 38.4754 120.469 37.4196C119.5 36.3638 119.016 35.0311 119.016 33.4249C119.016 31.7441 119.514 30.3673 120.515 29.2968C121.513 28.2252 122.86 27.6895 124.554 27.6895C126.186 27.6895 127.5 28.2173 128.491 29.2742C129.439 30.2995 129.912 31.6231 129.912 33.2452ZM127.348 33.3232C127.348 32.3228 127.129 31.4649 126.685 30.7493C126.166 29.8835 125.426 29.4517 124.466 29.4517C123.472 29.4517 122.717 29.8846 122.199 30.7493C121.755 31.466 121.536 32.3375 121.536 33.3684C121.536 34.3688 121.755 35.2267 122.199 35.9411C122.734 36.8069 123.48 37.2387 124.444 37.2387C125.387 37.2387 126.128 36.7979 126.663 35.9185C127.118 35.1894 127.348 34.3224 127.348 33.3232Z" fill="white"/>
<path d="M137.944 30.0306C137.7 29.9865 137.439 29.9639 137.165 29.9639C136.296 29.9639 135.623 30.2838 135.15 30.9247C134.739 31.4899 134.532 32.2043 134.532 33.0667V38.7581H132.062L132.085 31.3271C132.085 30.0769 132.054 28.9387 131.992 27.9123H134.145L134.236 29.9876H134.304C134.565 29.2744 134.976 28.7002 135.54 28.2695C136.09 27.8818 136.685 27.6885 137.326 27.6885C137.555 27.6885 137.761 27.7043 137.944 27.7326V30.0306Z" fill="white"/>
<path d="M149 32.8213C149 33.2531 148.971 33.6171 148.91 33.9143H141.495C141.524 34.9859 141.882 35.8054 142.57 36.3706C143.195 36.8759 144.003 37.1291 144.996 37.1291C146.094 37.1291 147.095 36.9584 147.996 36.6159L148.383 38.2888C147.331 38.7365 146.088 38.9591 144.654 38.9591C142.929 38.9591 141.575 38.464 140.589 37.475C139.606 36.4859 139.113 35.1577 139.113 33.4916C139.113 31.856 139.571 30.4939 140.488 29.4076C141.448 28.2478 142.746 27.668 144.378 27.668C145.981 27.668 147.195 28.2478 148.019 29.4076C148.672 30.3288 149 31.4682 149 32.8213ZM146.643 32.1962C146.659 31.4818 146.498 30.8646 146.163 30.3435C145.735 29.6732 145.078 29.3386 144.194 29.3386C143.385 29.3386 142.728 29.6653 142.226 30.3209C141.815 30.842 141.57 31.4671 141.495 32.1951H146.643V32.1962Z" fill="white"/>
</svg>
