<svg width="13" height="16" viewBox="0 0 13 16" fill="none" xmlns="http://www.w3.org/2000/svg">
<path fill-rule="evenodd" clip-rule="evenodd" d="M6.33238 0C5.18444 0 4.05697 0.312863 3.07303 0.90323C1.16871 2.04582 0 4.10568 0 6.32753C0 7.576 0.369551 8.79655 1.06208 9.83534L4.4906 14.9781C4.91621 15.6165 5.63272 16 6.4 16C7.16728 16 7.88379 15.6165 8.3094 14.9781L11.7379 9.83534C12.4304 8.79655 12.8 7.576 12.8 6.32753C12.8 4.10568 11.6313 2.04582 9.72697 0.90323C8.74302 0.312863 7.61556 0 6.46762 0H6.33238ZM9.36569 5.03431C9.6781 5.34673 9.6781 5.85327 9.36569 6.16569L6.96568 8.56569C6.65327 8.87811 6.14673 8.87811 5.83431 8.56569L4.23431 6.96569C3.9219 6.65327 3.9219 6.14673 4.23431 5.83431C4.54673 5.5219 5.05327 5.5219 5.36568 5.83431L6.4 6.86863L8.23431 5.03431C8.54673 4.7219 9.05327 4.7219 9.36569 5.03431Z" fill="#1B49FF"/>
</svg>
