<svg width="11" height="13" viewBox="0 0 11 13" fill="none" xmlns="http://www.w3.org/2000/svg">
<path d="M3.9 5.2C3.9 4.48203 4.48203 3.9 5.2 3.9C5.91797 3.9 6.5 4.48203 6.5 5.2C6.5 5.91797 5.91797 6.5 5.2 6.5C4.48203 6.5 3.9 5.91797 3.9 5.2Z" fill="#3E64F9"/>
<path fill-rule="evenodd" clip-rule="evenodd" d="M2.49684 0.733875C3.29629 0.254201 4.21236 0 5.14506 0H5.25494C6.18764 0 7.10371 0.254201 7.90316 0.733875C9.45042 1.66223 10.4 3.33587 10.4 5.14111C10.4 6.1555 10.0997 7.14719 9.53706 7.99122L6.75139 12.1697C6.40558 12.6884 5.82341 13 5.2 13C4.57659 13 3.99442 12.6884 3.64861 12.1697L0.862941 7.99122C0.30026 7.14719 0 6.1555 0 5.14111C0 3.33587 0.949579 1.66223 2.49684 0.733875ZM5.2 2.6C3.76406 2.6 2.6 3.76406 2.6 5.2C2.6 6.63594 3.76406 7.8 5.2 7.8C6.63594 7.8 7.8 6.63594 7.8 5.2C7.8 3.76406 6.63594 2.6 5.2 2.6Z" fill="#3E64F9"/>
</svg>
