<svg xmlns="http://www.w3.org/2000/svg" width="40" height="40" fill="none" viewBox="0 0 40 40"><rect width="40" height="40" x="40" y="40" fill="#0A1045" fill-opacity="0.1" rx="20" transform="rotate(-180 40 40)"/><path fill="#0A1045" d="M11.307 19.306a4.44 4.44 0 0 0 4.389 5.115v-.006a.895.895 0 0 0 0-1.777v-.006a2.65 2.65 0 0 1-2.62-3.054l.402-2.616c.14-.912.239-1.544.354-2.034.113-.478.229-.753.37-.96a2.685 2.685 0 0 1 1.07-.92c.227-.107.516-.18 1.006-.218.502-.04 1.142-.04 2.064-.04h2.548c.922 0 1.562 0 2.064.04.49.039.779.111 1.006.219.432.205.802.522 1.07.918.142.208.257.483.37.961.115.49.213 1.122.354 2.034l.426 2.773a2.514 2.514 0 0 1-2.485 2.897v.001a.895.895 0 1 0 0 1.786v.002a4.303 4.303 0 0 0 4.254-4.958l-.432-2.809c-.134-.867-.242-1.57-.376-2.137-.138-.586-.318-1.095-.63-1.554a4.474 4.474 0 0 0-1.784-1.53c-.501-.239-1.03-.34-1.631-.387C22.515 11 21.803 11 20.925 11h-2.62c-.878 0-1.589 0-2.17.046-.6.048-1.13.148-1.631.386-.72.342-1.337.87-1.785 1.531-.31.46-.49.968-.63 1.554-.133.567-.241 1.27-.375 2.137l-.408 2.652Z"/><path fill="#0A1045" d="M17.564 20.58a.895.895 0 1 1-1.265-1.265l2.684-2.684a.895.895 0 0 1 1.266 0l2.684 2.684a.895.895 0 0 1-1.265 1.265l-1.157-1.157v7.682a.895.895 0 0 1-1.79 0v-7.682l-1.157 1.157Z"/></svg>