<svg width="85" height="85" viewBox="0 0 85 85" fill="none" xmlns="http://www.w3.org/2000/svg">
<circle opacity="0.05" cx="42.5" cy="42.5" r="42.5" fill="#1B49FF"/>
<g clip-path="url(#clip0_2851_6852)">
<path d="M22.0641 61.1314C23.4026 61.1314 24.4876 58.7932 24.4876 55.9089C24.4876 53.0246 23.4026 50.6864 22.0641 50.6864C20.7257 50.6864 19.6406 53.0246 19.6406 55.9089C19.6406 58.7932 20.7257 61.1314 22.0641 61.1314Z" fill="#E6E6E6"/>
<path d="M22.2851 64.4573C21.3145 58.3068 22.2754 52.1784 22.2852 52.1173L22.474 52.1511C22.4642 52.2119 21.5089 58.308 22.474 64.4241L22.2851 64.4573Z" fill="#3F3D56"/>
<path d="M24.1993 54.7859L22.0078 56.0239L22.0981 56.2023L24.2896 54.9643L24.1993 54.7859Z" fill="#3F3D56"/>
<path d="M19.7857 55.4061L19.6953 55.5845L21.8866 56.8232L21.9769 56.6448L19.7857 55.4061Z" fill="#3F3D56"/>
<path d="M70.9409 27.3485H66.9688V41.87H70.9409V27.3485Z" fill="#3F3D56"/>
<path d="M73.5669 39.1383L63.906 27L44.5137 27.1873L32.75 39.2884L32.9877 39.4499H32.9028V64.6205H73.5408V39.4499L73.5669 39.1383Z" fill="#040B27"/>
<path d="M63.9129 27.0259L51.8438 41.97V64.6205H73.5377V39.1271L63.9129 27.0259Z" fill="#1B49FF"/>
<path d="M64.9851 52.0945H60.5547V56.2303H64.9851V52.0945Z" fill="#3F3D56"/>
<path d="M64.9851 44.9358H60.5547V49.006H64.9851V44.9358Z" fill="#3F3D56"/>
<path d="M64.9851 52.0945H60.5547V56.2303H64.9851V52.0945Z" fill="white"/>
<path d="M64.9851 44.9358H60.5547V49.006H64.9851V44.9358Z" fill="white"/>
<path d="M48.8359 63.8824C48.8359 63.8824 48.9309 61.7806 50.878 62.0249L48.8359 63.8824Z" fill="#E6E6E6"/>
<path d="M48.287 61.8822C48.8252 61.8822 49.2615 61.4215 49.2615 60.853C49.2615 60.2846 48.8252 59.8239 48.287 59.8239C47.7488 59.8239 47.3125 60.2846 47.3125 60.853C47.3125 61.4215 47.7488 61.8822 48.287 61.8822Z" fill="#1B49FF"/>
<path d="M48.4001 62.5861H48.125V64.6197H48.4001V62.5861Z" fill="#E6E6E6"/>
<path d="M16.2401 58.0693C18.858 58.0693 20.9802 53.4961 20.9802 47.8547C20.9802 42.2134 18.858 37.6401 16.2401 37.6401C13.6222 37.6401 11.5 42.2134 11.5 47.8547C11.5 53.4961 13.6222 58.0693 16.2401 58.0693Z" fill="#1B49FF"/>
<path d="M16.7688 64.5584C14.8729 52.5446 16.7496 40.5745 16.7688 40.455L16.9576 40.4887C16.9385 40.6079 15.0672 52.5459 16.9577 64.5253L16.7688 64.5584Z" fill="white"/>
<path d="M20.4583 45.7435L16.1719 48.1649L16.2622 48.3433L20.5486 45.9218L20.4583 45.7435Z" fill="white"/>
<path d="M11.7388 46.9564L11.6484 47.1348L15.9342 49.5574L16.0246 49.3791L11.7388 46.9564Z" fill="white"/>
<path d="M27.4708 55.6846C31.0532 55.6846 33.9572 49.4265 33.9572 41.7067C33.9572 33.987 31.0532 27.7289 27.4708 27.7289C23.8884 27.7289 20.9844 33.987 20.9844 41.7067C20.9844 49.4265 23.8884 55.6846 27.4708 55.6846Z" fill="#1B49FF"/>
<path d="M28.221 64.5584C25.6275 48.1244 28.1948 31.7505 28.221 31.587L28.4098 31.6208C28.3837 31.784 25.8219 48.1257 28.4099 64.5252L28.221 64.5584Z" fill="white"/>
<path d="M33.2562 38.8505L27.3906 42.1641L27.481 42.3424L33.3466 39.0289L33.2562 38.8505Z" fill="white"/>
<path d="M21.2857 40.5105L21.1953 40.6888L27.0601 44.004L27.1505 43.8257L21.2857 40.5105Z" fill="white"/>
<path d="M77 64.454H7V64.6299H77V64.454Z" fill="#D9DDEE"/>
<path d="M45.2977 50.9969H40.8672V55.1328H45.2977V50.9969Z" fill="#3F3D56"/>
<path d="M45.2977 43.8384H40.8672V47.9086H45.2977V43.8384Z" fill="#3F3D56"/>
<path d="M45.2977 50.9969H40.8672V55.1328H45.2977V50.9969Z" fill="white"/>
<path d="M45.2977 43.8384H40.8672V47.9086H45.2977V43.8384Z" fill="white"/>
</g>
<path fill-rule="evenodd" clip-rule="evenodd" d="M67 16.5C67 12.3579 70.3579 9 74.5 9C78.6421 9 82 12.3579 82 16.5C82 20.6421 78.6421 24 74.5 24C70.3579 24 67 20.6421 67 16.5ZM78.0303 15.1553C78.3232 14.8624 78.3232 14.3876 78.0303 14.0947C77.7374 13.8018 77.2626 13.8018 76.9697 14.0947L73.75 17.3143L72.0303 15.5947C71.7374 15.3018 71.2626 15.3018 70.9697 15.5947C70.6768 15.8876 70.6768 16.3624 70.9697 16.6553L73.2197 18.9053C73.2563 18.9419 73.2957 18.974 73.3373 19.0014C73.6284 19.1936 74.024 19.1616 74.2803 18.9053L78.0303 15.1553Z" fill="#1B49FF"/>
<defs>
<clipPath id="clip0_2851_6852">
<rect width="70" height="37.6299" fill="white" transform="translate(7 27)"/>
</clipPath>
</defs>
</svg>
