<svg width="258" height="308" viewBox="0 0 258 308" fill="none" xmlns="http://www.w3.org/2000/svg">
<rect x="0.5" y="0.5" width="257" height="307" rx="9.5" stroke="#0A1045" stroke-dasharray="8 8"/>
<g clip-path="url(#clip0_1626_15092)">
<path d="M150.888 132.111H108.11C107.3 132.111 106.523 132.433 105.95 133.006C105.377 133.579 105.055 134.356 105.055 135.167V171.833C105.055 172.644 105.377 173.421 105.95 173.994C106.523 174.567 107.3 174.889 108.11 174.889H150.888C151.698 174.889 152.476 174.567 153.049 173.994C153.622 173.421 153.944 172.644 153.944 171.833V135.167C153.944 134.356 153.622 133.579 153.049 133.006C152.476 132.433 151.698 132.111 150.888 132.111ZM108.11 171.833V135.167H150.888V171.833H108.11Z" fill="#0A1045"/>
<path d="M115.63 147.389C116.537 147.389 117.423 147.12 118.177 146.616C118.93 146.113 119.518 145.397 119.865 144.56C120.212 143.722 120.302 142.8 120.125 141.911C119.949 141.022 119.512 140.206 118.871 139.565C118.23 138.924 117.413 138.487 116.524 138.31C115.635 138.133 114.714 138.224 113.876 138.571C113.039 138.918 112.323 139.505 111.819 140.259C111.316 141.013 111.047 141.899 111.047 142.806C111.047 144.021 111.53 145.187 112.389 146.046C113.249 146.906 114.415 147.389 115.63 147.389ZM115.63 140.361C116.114 140.358 116.588 140.499 116.992 140.766C117.396 141.032 117.712 141.413 117.899 141.859C118.087 142.306 118.137 142.798 118.045 143.273C117.952 143.748 117.721 144.185 117.379 144.529C117.038 144.872 116.603 145.106 116.128 145.202C115.653 145.297 115.161 145.25 114.714 145.065C114.266 144.881 113.883 144.568 113.614 144.165C113.345 143.763 113.201 143.29 113.201 142.806C113.205 142.163 113.462 141.547 113.917 141.092C114.372 140.638 114.987 140.38 115.63 140.376V140.361Z" fill="#0A1045"/>
<path d="M136.805 149.482L128.555 157.732L122.444 151.621C122.158 151.336 121.771 151.177 121.367 151.177C120.963 151.177 120.576 151.336 120.29 151.621L111.047 160.986V165.31L121.42 154.936L126.447 159.886L120.718 165.615H124.919L137.829 152.706L147.836 162.667V158.358L138.959 149.482C138.673 149.197 138.286 149.038 137.882 149.038C137.479 149.038 137.091 149.197 136.805 149.482Z" fill="#0A1045"/>
</g>
<defs>
<clipPath id="clip0_1626_15092">
<rect width="55" height="55" fill="white" transform="translate(102 126)"/>
</clipPath>
</defs>
</svg>
